# xmcd CD database file
#
# Track frame offsets:
#	150
#	22847
#	40048
#	72974
#	99887
#	122327
#	151888
#	166659
#	184359
#	218184
#	234757
#
# Disc length: 3459 seconds
#
# Revision: 0
# Processed by: cddbd v1.5.2PL0 Copyright (c) Steve Scherf et al.
# Submitted via: CDex 1.51
#
DISCID=780d810b
DTITLE=Jimmy Scott - Milestone Profiles [CD1]
DYEAR=2006
DGENRE=Jazz
TTITLE0=Smile
TTITLE1=Moonglow
TTITLE2=Mood Indigo
TTITLE3=Without a Song
TTITLE4=You Don't Know What Love Is
TTITLE5=Darn That Dream
TTITLE6=Pennies From Heaven
TTITLE7=Strange Fruit
TTITLE8=How Long Has This Been Going On?
TTITLE9=If I Should Lose You
TTITLE10=Please Send Me Someone To Love
EXTD=YEAR: 2006
EXTT0=
EXTT1=
EXTT2=
EXTT3=
EXTT4=
EXTT5=
EXTT6=
EXTT7=
EXTT8=
EXTT9=
EXTT10=
PLAYORDER=
